<?xml version="1.0" encoding="UTF-8"?>
<svg id="Layer_2" data-name="Layer 2" xmlns="http://www.w3.org/2000/svg" viewBox="0 0 1158.08 638.86">
  <defs>
    <style>
      .cls-1 {
        fill: #fff;
      }
    </style>
  </defs>
  <g id="mountain-outline">
    <g>
      <path class="cls-1" d="m45.18,638.86L0,574.84l1.49-1.49L574.84,0l583.23,574.9-49.02,63.27-1.94-1.29c-.36-.24-35.66-24.05-61.55-64.87l-42.09,19.91-1.2-.87c-5.2-3.76-126.08-91.27-161.32-128.47l-61.43,40.18-34.71-21.78c-3.95,5.49-15.9,19.72-34.33,20.42-18.54.7-37.53-12.45-56.56-39.08l-53.19-74.46-70.99-93.18c-8.64,10.39-43.44,52.27-70.52,85.78l-17.09,27.69c-.39,1.2-.72,2.36-1.03,3.47-1.39,4.97-2.71,9.67-9.19,12.07l-6.81,2.52,12.46-20.2c1.26-3.7,3.22-7.91,7.2-12.49.85-.97,2.49-3.88,3.94-6.44,1.55-2.74,3.02-5.33,4.07-6.64.77-.96,1.55-1.93,2.34-2.9l9.93-16.09-36.95,11.84c-5.73,8.77-59.88,89.46-141.69,136.82l-2.5-4.33c85.1-49.27,139.92-135.08,140.46-135.94l.49-.77,50.25-16.1c26.3-32.15,52.46-63.54,52.79-63.94l2.01-2.41,74.84,98.23,53.23,74.52c17.97,25.16,35.56,37.62,52.26,36.99,19.67-.72,31.59-19.93,31.7-20.12l1.32-2.17,36.2,22.71,62.29-40.74,1.43,1.56c31.17,34,147.69,118.95,160.82,128.48l43.44-20.55,1.18,1.9c22.01,35.56,51.64,58.32,59.36,63.9l43.42-56.04L574.87,7.04,6.51,575.4l39.48,55.94,78.64-71.97h40.86v5h-38.92l-81.4,74.5Z"/>
      <path class="cls-1" d="m457.57,609.11c-.2-.07-19.75-7-39.23-16.84-24.34-12.29-38.08-23.69-40.92-33.94-10.11,3.07-41.5,11.28-50.26-1.86-8.06-12.09-59.64-62.85-69.48-72.48-51.04,42.63-126.47,109.59-129.64,123.32l-4.87-1.12c4.62-20,119.91-116.54,133.04-127.49l1.73-1.44,1.61,1.58c2.55,2.49,62.6,61.12,71.76,74.86,6.61,9.91,36.37,2.65,47.28-.99l3.08-1.03.2,3.24c1.16,18.59,56.23,42.01,77.36,49.47l-1.66,4.71Z"/>
      <path class="cls-1" d="m621.01,604.06c-10.45,0-21.38-1.53-32.73-4.59-18.97-5.11-39.15-14.48-59.99-27.85-29.97-19.23-52.81-41.42-59.24-47.91-27.81,27.96-77.25,47.79-79.38,48.64l-1.85-4.65c.52-.21,52.76-21.17,79.41-49.3l1.82-1.92,1.81,1.92c.25.26,25.33,26.69,60.21,49.05,30.55,19.59,74.84,39.83,115.58,28.06-6.89-3.85-19.77-11.33-32.48-20.16-23.99-16.66-36.62-30.52-37.61-41.27l-71.8-24.25,19.3-30.79,35.29-35.98-73.78-7.38,41.86-145.72,4.81,1.38-40.2,139.96,78.18,7.82-42.21,43.04-15.65,24.96,69.22,23.38-.08,1.87c-.75,18.65,52.14,50.73,72.59,61.51l4.99,2.63-5.3,1.93c-10.27,3.73-21.22,5.6-32.76,5.6Z"/>
      <polygon class="cls-1" points="853.54 576.88 811.44 534.79 769.9 534.79 741.86 478.7 746.33 476.46 772.99 529.79 813.51 529.79 847.4 563.67 838.86 462.9 843.84 462.48 853.54 576.88"/>
      <rect class="cls-1" x="998.24" y="559.38" width="5" height="60.31" transform="translate(-96.09 971.61) rotate(-49.71)"/>
    </g>
  </g>
</svg>