<?xml version="1.0" encoding="UTF-8"?>
<svg id="Layer_2" data-name="Layer 2" xmlns="http://www.w3.org/2000/svg" viewBox="0 0 1162.38 641.98">
  <defs>
    <style>
      .cls-1 {
        fill: #fff;
      }
    </style>
  </defs>
  <g id="mountain-outline">
    <g>
      <rect class="cls-1" x="270.45" y="448.91" width="223.33" height="2" transform="translate(-208.15 445.17) rotate(-49.2)"/>
      <rect class="cls-1" x="279.84" y="460.3" width="217.69" height="2" transform="translate(-214.5 454.92) rotate(-49.28)"/>
      <rect class="cls-1" x="276.77" y="438.41" width="295.68" height="2" transform="translate(-185.42 474.54) rotate(-49.28)"/>
      <rect class="cls-1" x="286.65" y="455.93" width="277.2" height="2" transform="translate(-198.35 484.35) rotate(-49.57)"/>
      <rect class="cls-1" x="306.38" y="469.94" width="245.88" height="2" transform="translate(-207.6 491.7) rotate(-49.51)"/>
      <rect class="cls-1" x="334.49" y="483.91" width="199.25" height="2" transform="translate(-216.61 497.56) rotate(-49.28)"/>
      <rect class="cls-1" x="352.48" y="497.08" width="170.37" height="2" transform="translate(-225.34 506.2) rotate(-49.4)"/>
      <rect class="cls-1" x="359.96" y="503.93" width="174.85" height="2" transform="translate(-227.11 517.87) rotate(-49.56)"/>
      <rect class="cls-1" x="388.95" y="499.41" width="155.32" height="2" transform="translate(-216.98 529.46) rotate(-49.44)"/>
      <rect class="cls-1" x="421.17" y="492.41" width="136.88" height="2" transform="translate(-203.62 544.49) rotate(-49.44)"/>
      <rect class="cls-1" x="456.23" y="485.54" width="111.28" height="2" transform="translate(-189.85 566.06) rotate(-50.01)"/>
      <rect class="cls-1" x="473.95" y="514.17" width="60.47" height="2" transform="translate(-215.52 555.47) rotate(-48.82)"/>
      <rect class="cls-1" x="487.2" y="529.44" width="37.54" height="2" transform="translate(-225.98 570.64) rotate(-49.5)"/>
      <rect class="cls-1" x="495.34" y="533.58" width="44.2" height="2" transform="translate(-225.04 582.06) rotate(-49.59)"/>
      <rect class="cls-1" x="505.07" y="539.11" width="45.27" height="2" transform="translate(-225.39 595.26) rotate(-49.85)"/>
      <rect class="cls-1" x="513.35" y="543.43" width="49.92" height="2" transform="translate(-225.27 600.37) rotate(-49.51)"/>
      <rect class="cls-1" x="522.12" y="548.79" width="51.81" height="2" transform="translate(-226.18 606.44) rotate(-49.28)"/>
      <rect class="cls-1" x="530.57" y="554.69" width="54.56" height="2" transform="translate(-227.07 618.1) rotate(-49.44)"/>
      <rect class="cls-1" x="540.29" y="561.96" width="53.18" height="2" transform="translate(-229.27 629.44) rotate(-49.57)"/>
      <rect class="cls-1" x="562.44" y="574.88" width="43.28" height="2" transform="translate(-232.78 650.2) rotate(-49.79)"/>
      <rect class="cls-1" x="575.52" y="580.09" width="37.74" height="2" transform="translate(-233.6 654.48) rotate(-49.42)"/>
      <rect class="cls-1" x="586.84" y="585.84" width="35.65" height="2" transform="translate(-234.17 666.6) rotate(-49.57)"/>
      <rect class="cls-1" x="759.1" y="501.91" width="17.03" height="2" transform="translate(-112 764.5) rotate(-49.79)"/>
      <rect class="cls-1" x="760.67" y="506.91" width="63.89" height="2" transform="translate(-105.6 789.75) rotate(-50.07)"/>
      <rect class="cls-1" x="769.04" y="498.91" width="90.14" height="2" transform="translate(-92.4 801.44) rotate(-49.95)"/>
      <rect class="cls-1" x="786.25" y="507.41" width="72.18" height="2" transform="translate(-91.01 825.43) rotate(-50.87)"/>
      <rect class="cls-1" x="819.49" y="532.42" width="33.75" height="2" transform="translate(-107.5 838.64) rotate(-50.45)"/>
      <rect class="cls-1" x="830.32" y="544.93" width="25.27" height="2" transform="translate(-123.25 819.93) rotate(-48.76)"/>
      <rect class="cls-1" x="808.41" y="518.24" width="44.97" height="2" transform="translate(-102.04 818.62) rotate(-49.79)"/>
      <rect class="cls-1" x="763.42" y="510.13" width="24.46" height="2" transform="translate(-119.33 759.93) rotate(-48.92)"/>
      <rect class="cls-1" x="285.51" y="487.17" width="94.08" height="2" transform="translate(-254.38 421.72) rotate(-49.28)"/>
      <rect class="cls-1" x="552.91" y="569.08" width="43.04" height="2" transform="translate(-232.04 637.7) rotate(-49.57)"/>
      <rect class="cls-1" x="600.64" y="590.25" width="26.71" height="2" transform="translate(-234.24 675.25) rotate(-49.57)"/>
      <rect class="cls-1" x="613.15" y="593.44" width="22.77" height="2" transform="translate(-232.97 684.4) rotate(-49.57)"/>
      <rect class="cls-1" x="628.89" y="596.83" width="14.09" height="2" transform="translate(-233.14 678.64) rotate(-48.54)"/>
    </g>
    <g>
      <path class="cls-1" d="m47.29,641.98L2.11,577.96l1.49-1.49L576.96,3.11l583.23,574.9-49.02,63.27-1.94-1.29c-.36-.24-35.66-24.05-61.55-64.87l-42.09,19.91-1.2-.87c-5.2-3.76-126.08-91.27-161.32-128.47l-61.43,40.18-34.71-21.78c-3.95,5.49-15.9,19.72-34.33,20.42-18.54.7-37.53-12.45-56.56-39.08l-53.19-74.46-70.99-93.18c-8.64,10.39-43.44,52.27-70.52,85.78l-17.09,27.69c-.39,1.2-.72,2.36-1.03,3.47-1.39,4.97-2.71,9.67-9.19,12.07l-6.81,2.52,12.46-20.2c1.26-3.7,3.22-7.91,7.2-12.49.85-.97,2.49-3.88,3.94-6.44,1.55-2.74,3.02-5.33,4.07-6.64.77-.96,1.55-1.93,2.34-2.9l9.93-16.09-36.95,11.84c-5.73,8.77-59.88,89.46-141.69,136.82l-2.5-4.33c85.1-49.27,139.92-135.08,140.46-135.94l.49-.77,50.25-16.1c26.3-32.15,52.46-63.54,52.79-63.94l2.01-2.41,74.84,98.23,53.23,74.52c17.97,25.16,35.56,37.62,52.26,36.99,19.67-.72,31.59-19.93,31.7-20.12l1.32-2.17,36.2,22.71,62.29-40.74,1.43,1.56c31.17,34,147.69,118.95,160.82,128.48l43.44-20.55,1.18,1.9c22.01,35.56,51.64,58.32,59.36,63.9l43.42-56.04L576.98,10.16,8.62,578.51l39.48,55.94,78.64-71.97h40.86v5h-38.92l-81.4,74.5Z"/>
      <path class="cls-1" d="m459.68,612.22c-.2-.07-19.75-7-39.23-16.84-24.34-12.29-38.08-23.69-40.92-33.94-10.11,3.07-41.5,11.28-50.26-1.86-8.06-12.09-59.64-62.85-69.48-72.48-51.04,42.63-126.47,109.59-129.64,123.32l-4.87-1.12c4.62-20,119.91-116.54,133.04-127.49l1.73-1.44,1.61,1.58c2.55,2.49,62.6,61.12,71.76,74.86,6.61,9.91,36.37,2.65,47.28-.99l3.08-1.03.2,3.24c1.16,18.59,56.23,42.01,77.36,49.47l-1.66,4.71Z"/>
      <path class="cls-1" d="m623.12,607.17c-10.45,0-21.38-1.53-32.73-4.59-18.97-5.11-39.15-14.48-59.99-27.85-29.97-19.23-52.81-41.42-59.24-47.91-27.81,27.96-77.25,47.79-79.38,48.64l-1.85-4.65c.52-.21,52.76-21.17,79.41-49.3l1.82-1.92,1.81,1.92c.25.26,25.33,26.69,60.21,49.05,30.55,19.59,74.84,39.83,115.58,28.06-6.89-3.85-19.77-11.33-32.48-20.16-23.99-16.66-36.62-30.52-37.61-41.27l-71.8-24.25,19.3-30.79,35.29-35.98-73.78-7.38,41.86-145.72,4.81,1.38-40.2,139.96,78.18,7.82-42.21,43.04-15.65,24.96,69.22,23.38-.08,1.87c-.75,18.65,52.14,50.73,72.59,61.51l4.99,2.63-5.3,1.93c-10.27,3.73-21.22,5.6-32.76,5.6Z"/>
      <polygon class="cls-1" points="855.65 580 813.55 537.9 772.01 537.9 743.97 481.81 748.44 479.58 775.1 532.9 815.62 532.9 849.51 566.79 840.97 466.01 845.95 465.59 855.65 580"/>
      <rect class="cls-1" x="1000.35" y="562.49" width="5" height="60.31" transform="translate(-97.72 974.32) rotate(-49.71)"/>
    </g>
    <polygon class="cls-1" points="45.49 641.92 0 576.84 577.58 0 580.76 3.15 1162.38 579.01 1112.63 641.22 1105.6 635.6 1150.29 579.71 577.61 12.69 11.7 577.88 52.87 636.76 45.49 641.92"/>
  </g>
</svg>